<?xml version="1.0" encoding="UTF-8" standalone="no"?>
<!DOCTYPE svg PUBLIC "-//W3C//DTD SVG 1.1//EN"
 "http://www.w3.org/Graphics/SVG/1.1/DTD/svg11.dtd">
<!-- Generated by graphviz version 2.47.1 (20210421.1823)
 -->
<!-- Title: pyama.roi_new.roi.Roi Pages: 1 -->
<svg width="141pt" height="303pt"
 viewBox="0.00 0.00 141.00 303.00" xmlns="http://www.w3.org/2000/svg" xmlns:xlink="http://www.w3.org/1999/xlink">
<g id="graph0" class="graph" transform="scale(1 1) rotate(0) translate(4 299)">
<title>pyama.roi_new.roi.Roi</title>
<polygon fill="white" stroke="transparent" points="-4,4 -4,-299 137,-299 137,4 -4,4"/>
<!-- Node1 -->
<g id="node1" class="node">
<title>Node1</title>
<g id="a_node1"><a xlink:title="Representation of a region&#45;of&#45;interest (ROI).">
<polygon fill="#bfbfbf" stroke="black" points="11.5,-0.5 11.5,-90.5 121.5,-90.5 121.5,-0.5 11.5,-0.5"/>
<text text-anchor="middle" x="66.5" y="-78.5" font-family="Helvetica,sans-Serif" font-size="10.00">pyama.roi_new.roi.Roi</text>
<polyline fill="none" stroke="black" points="11.5,-71.5 121.5,-71.5 "/>
<text text-anchor="middle" x="66.5" y="-59.5" font-family="Helvetica,sans-Serif" font-size="10.00"> </text>
<polyline fill="none" stroke="black" points="11.5,-52.5 121.5,-52.5 "/>
<text text-anchor="start" x="19.5" y="-40.5" font-family="Helvetica,sans-Serif" font-size="10.00">+ __init__()</text>
<text text-anchor="start" x="19.5" y="-29.5" font-family="Helvetica,sans-Serif" font-size="10.00">+ params()</text>
<text text-anchor="start" x="19.5" y="-18.5" font-family="Helvetica,sans-Serif" font-size="10.00">+ par_ind()</text>
<text text-anchor="start" x="19.5" y="-7.5" font-family="Helvetica,sans-Serif" font-size="10.00">+ props()</text>
</a>
</g>
</g>
<!-- Node2 -->
<g id="node2" class="node">
<title>Node2</title>
<g id="a_node2"><a xlink:href="classpyama_1_1roi__new_1_1roi_1_1BaseRoi.html" target="_top" xlink:title="Base class for representing a region&#45;of&#45;interest (ROI).">
<polygon fill="white" stroke="black" points="0,-127.5 0,-294.5 133,-294.5 133,-127.5 0,-127.5"/>
<text text-anchor="middle" x="66.5" y="-282.5" font-family="Helvetica,sans-Serif" font-size="10.00">pyama.roi_new.roi.BaseRoi</text>
<polyline fill="none" stroke="black" points="0,-275.5 133,-275.5 "/>
<text text-anchor="start" x="8" y="-263.5" font-family="Helvetica,sans-Serif" font-size="10.00">+ group</text>
<polyline fill="none" stroke="black" points="0,-256.5 133,-256.5 "/>
<text text-anchor="start" x="8" y="-244.5" font-family="Helvetica,sans-Serif" font-size="10.00">+ __init__()</text>
<text text-anchor="start" x="8" y="-233.5" font-family="Helvetica,sans-Serif" font-size="10.00">+ lock()</text>
<text text-anchor="start" x="8" y="-222.5" font-family="Helvetica,sans-Serif" font-size="10.00">+ id()</text>
<text text-anchor="start" x="8" y="-211.5" font-family="Helvetica,sans-Serif" font-size="10.00">+ name()</text>
<text text-anchor="start" x="8" y="-200.5" font-family="Helvetica,sans-Serif" font-size="10.00">+ name()</text>
<text text-anchor="start" x="8" y="-189.5" font-family="Helvetica,sans-Serif" font-size="10.00">+ group()</text>
<text text-anchor="start" x="8" y="-178.5" font-family="Helvetica,sans-Serif" font-size="10.00">+ group()</text>
<text text-anchor="start" x="8" y="-167.5" font-family="Helvetica,sans-Serif" font-size="10.00">+ color()</text>
<text text-anchor="start" x="8" y="-156.5" font-family="Helvetica,sans-Serif" font-size="10.00">+ color()</text>
<text text-anchor="start" x="8" y="-145.5" font-family="Helvetica,sans-Serif" font-size="10.00">+ visible()</text>
<text text-anchor="start" x="8" y="-134.5" font-family="Helvetica,sans-Serif" font-size="10.00">+ visible()</text>
</a>
</g>
</g>
<!-- Node2&#45;&gt;Node1 -->
<g id="edge1" class="edge">
<title>Node2&#45;&gt;Node1</title>
<path fill="none" stroke="midnightblue" d="M66.5,-117.22C66.5,-107.99 66.5,-98.95 66.5,-90.58"/>
<polygon fill="none" stroke="midnightblue" points="63,-117.29 66.5,-127.29 70,-117.29 63,-117.29"/>
</g>
</g>
</svg>
