<?xml version="1.0" encoding="UTF-8" standalone="no"?>
<!DOCTYPE svg PUBLIC "-//W3C//DTD SVG 1.1//EN"
 "http://www.w3.org/Graphics/SVG/1.1/DTD/svg11.dtd">
<!-- Generated by graphviz version 2.47.1 (20210421.1823)
 -->
<!-- Title: pyama.roi.contour.ContourRoi Pages: 1 -->
<svg width="151pt" height="463pt"
 viewBox="0.00 0.00 151.00 463.00" xmlns="http://www.w3.org/2000/svg" xmlns:xlink="http://www.w3.org/1999/xlink">
<g id="graph0" class="graph" transform="scale(1 1) rotate(0) translate(4 459)">
<title>pyama.roi.contour.ContourRoi</title>
<polygon fill="white" stroke="transparent" points="-4,4 -4,-459 147,-459 147,4 -4,4"/>
<!-- Node1 -->
<g id="node1" class="node">
<title>Node1</title>
<g id="a_node1"><a xlink:title=" ">
<polygon fill="#bfbfbf" stroke="black" points="0,-0.5 0,-112.5 143,-112.5 143,-0.5 0,-0.5"/>
<text text-anchor="middle" x="71.5" y="-100.5" font-family="Helvetica,sans-Serif" font-size="10.00">pyama.roi.contour.ContourRoi</text>
<polyline fill="none" stroke="black" points="0,-93.5 143,-93.5 "/>
<text text-anchor="start" x="8" y="-81.5" font-family="Helvetica,sans-Serif" font-size="10.00">+ label</text>
<text text-anchor="start" x="8" y="-70.5" font-family="Helvetica,sans-Serif" font-size="10.00">+ coords</text>
<text text-anchor="start" x="8" y="-59.5" font-family="Helvetica,sans-Serif" font-size="10.00">+ area</text>
<text text-anchor="start" x="8" y="-48.5" font-family="Helvetica,sans-Serif" font-size="10.00">+ TYPE</text>
<polyline fill="none" stroke="black" points="0,-41.5 143,-41.5 "/>
<text text-anchor="start" x="8" y="-29.5" font-family="Helvetica,sans-Serif" font-size="10.00">+ __init__()</text>
<text text-anchor="start" x="8" y="-18.5" font-family="Helvetica,sans-Serif" font-size="10.00">+ from_regionprops()</text>
<text text-anchor="start" x="8" y="-7.5" font-family="Helvetica,sans-Serif" font-size="10.00">+ contour()</text>
</a>
</g>
</g>
<!-- Node2 -->
<g id="node2" class="node">
<title>Node2</title>
<g id="a_node2"><a xlink:href="classpyama_1_1roi_1_1base_1_1Roi.html" target="_top" xlink:title="Base class for ROIs.">
<polygon fill="white" stroke="black" points="22.5,-149.5 22.5,-360.5 120.5,-360.5 120.5,-149.5 22.5,-149.5"/>
<text text-anchor="middle" x="71.5" y="-348.5" font-family="Helvetica,sans-Serif" font-size="10.00">pyama.roi.base.Roi</text>
<polyline fill="none" stroke="black" points="22.5,-341.5 120.5,-341.5 "/>
<text text-anchor="start" x="30.5" y="-329.5" font-family="Helvetica,sans-Serif" font-size="10.00">+ lock</text>
<text text-anchor="start" x="30.5" y="-318.5" font-family="Helvetica,sans-Serif" font-size="10.00">+ Y</text>
<text text-anchor="start" x="30.5" y="-307.5" font-family="Helvetica,sans-Serif" font-size="10.00">+ X</text>
<text text-anchor="start" x="30.5" y="-296.5" font-family="Helvetica,sans-Serif" font-size="10.00">+ Roi_BBox</text>
<text text-anchor="start" x="30.5" y="-285.5" font-family="Helvetica,sans-Serif" font-size="10.00">+ TYPE</text>
<polyline fill="none" stroke="black" points="22.5,-278.5 120.5,-278.5 "/>
<text text-anchor="start" x="30.5" y="-266.5" font-family="Helvetica,sans-Serif" font-size="10.00">+ __init__()</text>
<text text-anchor="start" x="30.5" y="-255.5" font-family="Helvetica,sans-Serif" font-size="10.00">+ type()</text>
<text text-anchor="start" x="30.5" y="-244.5" font-family="Helvetica,sans-Serif" font-size="10.00">+ serialize()</text>
<text text-anchor="start" x="30.5" y="-233.5" font-family="Helvetica,sans-Serif" font-size="10.00">+ deserialize()</text>
<text text-anchor="start" x="30.5" y="-222.5" font-family="Helvetica,sans-Serif" font-size="10.00">+ uid()</text>
<text text-anchor="start" x="30.5" y="-211.5" font-family="Helvetica,sans-Serif" font-size="10.00">+ category()</text>
<text text-anchor="start" x="30.5" y="-200.5" font-family="Helvetica,sans-Serif" font-size="10.00">+ category()</text>
<text text-anchor="start" x="30.5" y="-189.5" font-family="Helvetica,sans-Serif" font-size="10.00">+ visible()</text>
<text text-anchor="start" x="30.5" y="-178.5" font-family="Helvetica,sans-Serif" font-size="10.00">+ visible()</text>
<text text-anchor="start" x="30.5" y="-167.5" font-family="Helvetica,sans-Serif" font-size="10.00">+ name()</text>
<text text-anchor="start" x="30.5" y="-156.5" font-family="Helvetica,sans-Serif" font-size="10.00">and 26 more...</text>
</a>
</g>
</g>
<!-- Node2&#45;&gt;Node1 -->
<g id="edge1" class="edge">
<title>Node2&#45;&gt;Node1</title>
<path fill="none" stroke="midnightblue" d="M71.5,-139.39C71.5,-130.2 71.5,-121.2 71.5,-112.74"/>
<polygon fill="none" stroke="midnightblue" points="68,-139.42 71.5,-149.42 75,-139.42 68,-139.42"/>
</g>
<!-- Node3 -->
<g id="node3" class="node">
<title>Node3</title>
<g id="a_node3"><a xlink:title=" ">
<polygon fill="white" stroke="#bfbfbf" points="43,-397.5 43,-454.5 100,-454.5 100,-397.5 43,-397.5"/>
<text text-anchor="middle" x="71.5" y="-442.5" font-family="Helvetica,sans-Serif" font-size="10.00">abc::ABC</text>
<polyline fill="none" stroke="#bfbfbf" points="43,-435.5 100,-435.5 "/>
<text text-anchor="middle" x="71.5" y="-423.5" font-family="Helvetica,sans-Serif" font-size="10.00"> </text>
<polyline fill="none" stroke="#bfbfbf" points="43,-416.5 100,-416.5 "/>
<text text-anchor="middle" x="71.5" y="-404.5" font-family="Helvetica,sans-Serif" font-size="10.00"> </text>
</a>
</g>
</g>
<!-- Node3&#45;&gt;Node2 -->
<g id="edge2" class="edge">
<title>Node3&#45;&gt;Node2</title>
<path fill="none" stroke="midnightblue" d="M71.5,-387.23C71.5,-379.04 71.5,-369.99 71.5,-360.58"/>
<polygon fill="none" stroke="midnightblue" points="68,-387.47 71.5,-397.47 75,-387.47 68,-387.47"/>
</g>
</g>
</svg>
