<?xml version="1.0" encoding="UTF-8" standalone="no"?>
<!DOCTYPE svg PUBLIC "-//W3C//DTD SVG 1.1//EN"
 "http://www.w3.org/Graphics/SVG/1.1/DTD/svg11.dtd">
<!-- Generated by graphviz version 2.47.1 (20210421.1823)
 -->
<!-- Title: pyama.stackviewer_tk.StackViewer Pages: 1 -->
<svg width="191pt" height="413pt"
 viewBox="0.00 0.00 190.50 413.00" xmlns="http://www.w3.org/2000/svg" xmlns:xlink="http://www.w3.org/1999/xlink">
<g id="graph0" class="graph" transform="scale(1 1) rotate(0) translate(4 409)">
<title>pyama.stackviewer_tk.StackViewer</title>
<polygon fill="white" stroke="transparent" points="-4,4 -4,-409 186.5,-409 186.5,4 -4,4"/>
<!-- Node1 -->
<g id="node1" class="node">
<title>Node1</title>
<g id="a_node1"><a xlink:title="Provides a GUI for displaying a TIFF stack.">
<polygon fill="#bfbfbf" stroke="black" points="0,-0.5 0,-288.5 141,-288.5 141,-0.5 0,-0.5"/>
<text text-anchor="start" x="8" y="-276.5" font-family="Helvetica,sans-Serif" font-size="10.00">pyama.stackviewer_tk.Stack</text>
<text text-anchor="middle" x="70.5" y="-265.5" font-family="Helvetica,sans-Serif" font-size="10.00">Viewer</text>
<polyline fill="none" stroke="black" points="0,-258.5 141,-258.5 "/>
<text text-anchor="start" x="8" y="-246.5" font-family="Helvetica,sans-Serif" font-size="10.00">+ root</text>
<text text-anchor="start" x="8" y="-235.5" font-family="Helvetica,sans-Serif" font-size="10.00">+ closing_state</text>
<text text-anchor="start" x="8" y="-224.5" font-family="Helvetica,sans-Serif" font-size="10.00">+ contrast_adjuster</text>
<text text-anchor="start" x="8" y="-213.5" font-family="Helvetica,sans-Serif" font-size="10.00">+ image_listener_id</text>
<text text-anchor="start" x="8" y="-202.5" font-family="Helvetica,sans-Serif" font-size="10.00">+ roi_listener_id</text>
<text text-anchor="start" x="8" y="-191.5" font-family="Helvetica,sans-Serif" font-size="10.00">+ stack</text>
<text text-anchor="start" x="8" y="-180.5" font-family="Helvetica,sans-Serif" font-size="10.00">+ n_channels</text>
<text text-anchor="start" x="8" y="-169.5" font-family="Helvetica,sans-Serif" font-size="10.00">+ n_frames</text>
<text text-anchor="start" x="8" y="-158.5" font-family="Helvetica,sans-Serif" font-size="10.00">+ i_channel</text>
<text text-anchor="start" x="8" y="-147.5" font-family="Helvetica,sans-Serif" font-size="10.00">+ i_frame</text>
<text text-anchor="start" x="8" y="-136.5" font-family="Helvetica,sans-Serif" font-size="10.00">and 25 more...</text>
<polyline fill="none" stroke="black" points="0,-129.5 141,-129.5 "/>
<text text-anchor="start" x="8" y="-117.5" font-family="Helvetica,sans-Serif" font-size="10.00">+ __init__()</text>
<text text-anchor="start" x="8" y="-106.5" font-family="Helvetica,sans-Serif" font-size="10.00">+ schedule()</text>
<text text-anchor="start" x="8" y="-95.5" font-family="Helvetica,sans-Serif" font-size="10.00">+ schedule_and_wait()</text>
<text text-anchor="start" x="8" y="-84.5" font-family="Helvetica,sans-Serif" font-size="10.00">+ update_stack_properties()</text>
<text text-anchor="start" x="8" y="-73.5" font-family="Helvetica,sans-Serif" font-size="10.00">+ draw_rois()</text>
<text text-anchor="start" x="8" y="-62.5" font-family="Helvetica,sans-Serif" font-size="10.00">+ open_stack()</text>
<text text-anchor="start" x="8" y="-51.5" font-family="Helvetica,sans-Serif" font-size="10.00">+ set_stack()</text>
<text text-anchor="start" x="8" y="-40.5" font-family="Helvetica,sans-Serif" font-size="10.00">+ i_frame_jump()</text>
<text text-anchor="start" x="8" y="-29.5" font-family="Helvetica,sans-Serif" font-size="10.00">+ toggle_roi_adjustment()</text>
<text text-anchor="start" x="8" y="-18.5" font-family="Helvetica,sans-Serif" font-size="10.00">+ start_roi_adjustment()</text>
<text text-anchor="start" x="8" y="-7.5" font-family="Helvetica,sans-Serif" font-size="10.00">and 9 more...</text>
</a>
</g>
</g>
<!-- Node2 -->
<g id="node2" class="node">
<title>Node2</title>
<g id="a_node2"><a xlink:title=" ">
<polygon fill="white" stroke="#bfbfbf" points="50,-347.5 50,-404.5 91,-404.5 91,-347.5 50,-347.5"/>
<text text-anchor="middle" x="70.5" y="-392.5" font-family="Helvetica,sans-Serif" font-size="10.00">string</text>
<polyline fill="none" stroke="#bfbfbf" points="50,-385.5 91,-385.5 "/>
<text text-anchor="middle" x="70.5" y="-373.5" font-family="Helvetica,sans-Serif" font-size="10.00"> </text>
<polyline fill="none" stroke="#bfbfbf" points="50,-366.5 91,-366.5 "/>
<text text-anchor="middle" x="70.5" y="-354.5" font-family="Helvetica,sans-Serif" font-size="10.00"> </text>
</a>
</g>
</g>
<!-- Node2&#45;&gt;Node1 -->
<g id="edge1" class="edge">
<title>Node2&#45;&gt;Node1</title>
<path fill="none" stroke="#404040" d="M70.5,-347.32C70.5,-334.62 70.5,-318.46 70.5,-300.84"/>
<polygon fill="none" stroke="#404040" points="70.5,-300.75 66.5,-294.75 70.5,-288.75 74.5,-294.75 70.5,-300.75"/>
<text text-anchor="middle" x="126.5" y="-321" font-family="Helvetica,sans-Serif" font-size="10.00"> +CMD_UPDATE_ROIS</text>
<text text-anchor="middle" x="126.5" y="-310" font-family="Helvetica,sans-Serif" font-size="10.00">+CMD_UPDATE_STACK</text>
</g>
</g>
</svg>
