<?xml version="1.0" encoding="UTF-8" standalone="no"?>
<!DOCTYPE svg PUBLIC "-//W3C//DTD SVG 1.1//EN"
 "http://www.w3.org/Graphics/SVG/1.1/DTD/svg11.dtd">
<!-- Generated by graphviz version 2.47.1 (20210421.1823)
 -->
<!-- Title: Graphical Class Hierarchy Pages: 1 -->
<svg width="434pt" height="28pt"
 viewBox="0.00 0.00 434.00 28.00" xmlns="http://www.w3.org/2000/svg" xmlns:xlink="http://www.w3.org/1999/xlink">
<g id="graph0" class="graph" transform="scale(1 1) rotate(0) translate(4 24)">
<title>Graphical Class Hierarchy</title>
<polygon fill="white" stroke="transparent" points="-4,4 -4,-24 430,-24 430,4 -4,4"/>
<!-- Node1 -->
<g id="node1" class="node">
<title>Node1</title>
<g id="a_node1"><a xlink:href="classpyama_1_1roi_1_1contour_1_1ContourRoi.html" target="_top" xlink:title=" ">
<polygon fill="white" stroke="black" points="0,-0.5 0,-19.5 143,-19.5 143,-0.5 0,-0.5"/>
<text text-anchor="middle" x="71.5" y="-7.5" font-family="Helvetica,sans-Serif" font-size="10.00">pyama.roi.contour.ContourRoi</text>
</a>
</g>
</g>
<!-- Node0 -->
<g id="node2" class="node">
<title>Node0</title>
<g id="a_node2"><a xlink:href="classpyama_1_1roi_1_1base_1_1Roi.html" target="_top" xlink:title="Base class for ROIs.">
<polygon fill="white" stroke="black" points="179,-0.5 179,-19.5 277,-19.5 277,-0.5 179,-0.5"/>
<text text-anchor="middle" x="228" y="-7.5" font-family="Helvetica,sans-Serif" font-size="10.00">pyama.roi.base.Roi</text>
</a>
</g>
</g>
<!-- Node1&#45;&gt;Node0 -->
<g id="edge1" class="edge">
<title>Node1&#45;&gt;Node0</title>
<path fill="none" stroke="midnightblue" d="M153.48,-3.26C162.05,-3.29 170.56,-3.43 178.58,-3.69"/>
<polygon fill="midnightblue" stroke="midnightblue" points="153.41,0.24 143.42,-3.27 153.42,-6.76 153.41,0.24"/>
</g>
<!-- Node0&#45;&gt;Node1 -->
<g id="edge2" class="edge">
<title>Node0&#45;&gt;Node1</title>
<path fill="none" stroke="midnightblue" d="M168.42,-16.57C160.25,-16.73 151.79,-16.78 143.42,-16.73"/>
<polygon fill="midnightblue" stroke="midnightblue" points="168.67,-20.07 178.58,-16.31 168.5,-13.07 168.67,-20.07"/>
</g>
<!-- Node2 -->
<g id="node3" class="node">
<title>Node2</title>
<g id="a_node3"><a xlink:href="classpyama_1_1roi_1_1rect_1_1RectRoi.html" target="_top" xlink:title="Holds information of a ROI.">
<polygon fill="white" stroke="black" points="313,-0.5 313,-19.5 426,-19.5 426,-0.5 313,-0.5"/>
<text text-anchor="middle" x="369.5" y="-7.5" font-family="Helvetica,sans-Serif" font-size="10.00">pyama.roi.rect.RectRoi</text>
</a>
</g>
</g>
<!-- Node0&#45;&gt;Node2 -->
<g id="edge3" class="edge">
<title>Node0&#45;&gt;Node2</title>
<path fill="none" stroke="midnightblue" d="M287.17,-10C295.63,-10 304.32,-10 312.72,-10"/>
<polygon fill="midnightblue" stroke="midnightblue" points="287.01,-6.5 277.01,-10 287.01,-13.5 287.01,-6.5"/>
</g>
</g>
</svg>
