<?xml version="1.0" encoding="UTF-8" standalone="no"?>
<!DOCTYPE svg PUBLIC "-//W3C//DTD SVG 1.1//EN"
 "http://www.w3.org/Graphics/SVG/1.1/DTD/svg11.dtd">
<!-- Generated by graphviz version 2.47.1 (20210421.1823)
 -->
<!-- Title: Graphical Class Hierarchy Pages: 1 -->
<svg width="237pt" height="88pt"
 viewBox="0.00 0.00 237.00 88.00" xmlns="http://www.w3.org/2000/svg" xmlns:xlink="http://www.w3.org/1999/xlink">
<g id="graph0" class="graph" transform="scale(1 1) rotate(0) translate(4 84)">
<title>Graphical Class Hierarchy</title>
<polygon fill="white" stroke="transparent" points="-4,4 -4,-84 233,-84 233,4 -4,4"/>
<!-- Node49 -->
<g id="node1" class="node">
<title>Node49</title>
<g id="a_node1"><a xlink:title=" ">
<polygon fill="white" stroke="#bfbfbf" points="0,-30 0,-49 64,-49 64,-30 0,-30"/>
<text text-anchor="middle" x="32" y="-37" font-family="Helvetica,sans-Serif" font-size="10.00">tk.Toplevel</text>
</a>
</g>
</g>
<!-- Node0 -->
<g id="node2" class="node">
<title>Node0</title>
<g id="a_node2"><a xlink:href="classpyama_1_1gui_1_1channel__add__dialog_1_1ChannelAddDialog.html" target="_top" xlink:title=" ">
<polygon fill="white" stroke="black" points="100,-49.5 100,-79.5 229,-79.5 229,-49.5 100,-49.5"/>
<text text-anchor="start" x="108" y="-67.5" font-family="Helvetica,sans-Serif" font-size="10.00">pyama.gui.channel_add</text>
<text text-anchor="middle" x="164.5" y="-56.5" font-family="Helvetica,sans-Serif" font-size="10.00">_dialog.ChannelAddDialog</text>
</a>
</g>
</g>
<!-- Node49&#45;&gt;Node0 -->
<g id="edge1" class="edge">
<title>Node49&#45;&gt;Node0</title>
<path fill="none" stroke="midnightblue" d="M74.27,-47.41C82.46,-48.97 91.23,-50.65 99.96,-52.33"/>
<polygon fill="midnightblue" stroke="midnightblue" points="74.74,-43.93 64.26,-45.49 73.42,-50.81 74.74,-43.93"/>
</g>
<!-- Node51 -->
<g id="node3" class="node">
<title>Node51</title>
<g id="a_node3"><a xlink:href="classpyama_1_1gui_1_1channel__edit__dialog_1_1ChannelEditDialog.html" target="_top" xlink:title="Dialog to change channel properties.">
<polygon fill="white" stroke="black" points="100.5,-0.5 100.5,-30.5 228.5,-30.5 228.5,-0.5 100.5,-0.5"/>
<text text-anchor="start" x="108.5" y="-18.5" font-family="Helvetica,sans-Serif" font-size="10.00">pyama.gui.channel_edit</text>
<text text-anchor="middle" x="164.5" y="-7.5" font-family="Helvetica,sans-Serif" font-size="10.00">_dialog.ChannelEditDialog</text>
</a>
</g>
</g>
<!-- Node49&#45;&gt;Node51 -->
<g id="edge2" class="edge">
<title>Node49&#45;&gt;Node51</title>
<path fill="none" stroke="midnightblue" d="M74.14,-31.93C82.52,-30.39 91.53,-28.74 100.48,-27.09"/>
<polygon fill="midnightblue" stroke="midnightblue" points="73.46,-28.5 64.26,-33.75 74.73,-35.38 73.46,-28.5"/>
</g>
</g>
</svg>
