<?xml version="1.0" encoding="UTF-8" standalone="no"?>
<!DOCTYPE svg PUBLIC "-//W3C//DTD SVG 1.1//EN"
 "http://www.w3.org/Graphics/SVG/1.1/DTD/svg11.dtd">
<!-- Generated by graphviz version 2.47.1 (20210421.1823)
 -->
<!-- Title: Graphical Class Hierarchy Pages: 1 -->
<svg width="312pt" height="78pt"
 viewBox="0.00 0.00 312.00 77.50" xmlns="http://www.w3.org/2000/svg" xmlns:xlink="http://www.w3.org/1999/xlink">
<g id="graph0" class="graph" transform="scale(1 1) rotate(0) translate(4 73.5)">
<title>Graphical Class Hierarchy</title>
<polygon fill="white" stroke="transparent" points="-4,4 -4,-73.5 308,-73.5 308,4 -4,4"/>
<!-- Node0 -->
<g id="node1" class="node">
<title>Node0</title>
<g id="a_node1"><a xlink:href="classpyama_1_1stack_1_1roistack_1_1RoiStack.html" target="_top" xlink:title="This class provides capability of a stack to hold RoiCollections and is not intended to be directly i...">
<polygon fill="white" stroke="black" points="0,-17 0,-47 125,-47 125,-17 0,-17"/>
<text text-anchor="start" x="8" y="-35" font-family="Helvetica,sans-Serif" font-size="10.00">pyama.stack.roistack.Roi</text>
<text text-anchor="middle" x="62.5" y="-24" font-family="Helvetica,sans-Serif" font-size="10.00">Stack</text>
</a>
</g>
</g>
<!-- Node1 -->
<g id="node2" class="node">
<title>Node1</title>
<g id="a_node2"><a xlink:href="classpyama_1_1stack_1_1metastack_1_1MetaStack.html" target="_top" xlink:title=" ">
<polygon fill="white" stroke="black" points="161,-39 161,-69 304,-69 304,-39 161,-39"/>
<text text-anchor="start" x="169" y="-57" font-family="Helvetica,sans-Serif" font-size="10.00">pyama.stack.metastack.Meta</text>
<text text-anchor="middle" x="232.5" y="-46" font-family="Helvetica,sans-Serif" font-size="10.00">Stack</text>
</a>
</g>
</g>
<!-- Node0&#45;&gt;Node1 -->
<g id="edge1" class="edge">
<title>Node0&#45;&gt;Node1</title>
<path fill="none" stroke="midnightblue" d="M135.03,-41.37C143.56,-42.48 152.28,-43.63 160.81,-44.74"/>
<polygon fill="midnightblue" stroke="midnightblue" points="135.47,-37.9 125.1,-40.07 134.56,-44.84 135.47,-37.9"/>
</g>
<!-- Node2 -->
<g id="node3" class="node">
<title>Node2</title>
<g id="a_node3"><a xlink:href="classpyama_1_1stack_1_1stack_1_1Stack.html" target="_top" xlink:title="Represents an image stack.">
<polygon fill="white" stroke="black" points="170,-0.5 170,-19.5 295,-19.5 295,-0.5 170,-0.5"/>
<text text-anchor="middle" x="232.5" y="-7.5" font-family="Helvetica,sans-Serif" font-size="10.00">pyama.stack.stack.Stack</text>
</a>
</g>
</g>
<!-- Node0&#45;&gt;Node2 -->
<g id="edge2" class="edge">
<title>Node0&#45;&gt;Node2</title>
<path fill="none" stroke="midnightblue" d="M135.16,-22.62C146.72,-21.1 158.61,-19.55 169.9,-18.07"/>
<polygon fill="midnightblue" stroke="midnightblue" points="134.56,-19.16 125.1,-23.93 135.47,-26.1 134.56,-19.16"/>
</g>
</g>
</svg>
