<?xml version="1.0" encoding="UTF-8" standalone="no"?>
<!DOCTYPE svg PUBLIC "-//W3C//DTD SVG 1.1//EN"
 "http://www.w3.org/Graphics/SVG/1.1/DTD/svg11.dtd">
<!-- Generated by graphviz version 2.47.1 (20210421.1823)
 -->
<!-- Title: pyama.roi.rect.RectRoi Pages: 1 -->
<svg width="166pt" height="464pt"
 viewBox="0.00 0.00 165.50 464.00" xmlns="http://www.w3.org/2000/svg" xmlns:xlink="http://www.w3.org/1999/xlink">
<g id="graph0" class="graph" transform="scale(1 1) rotate(0) translate(4 460)">
<title>pyama.roi.rect.RectRoi</title>
<polygon fill="white" stroke="transparent" points="-4,4 -4,-460 161.5,-460 161.5,4 -4,4"/>
<!-- Node1 -->
<g id="node1" class="node">
<title>Node1</title>
<g id="a_node1"><a xlink:title="Holds information of a ROI.">
<polygon fill="#bfbfbf" stroke="black" points="36.5,-0.5 36.5,-101.5 149.5,-101.5 149.5,-0.5 36.5,-0.5"/>
<text text-anchor="middle" x="93" y="-89.5" font-family="Helvetica,sans-Serif" font-size="10.00">pyama.roi.rect.RectRoi</text>
<polyline fill="none" stroke="black" points="36.5,-82.5 149.5,-82.5 "/>
<text text-anchor="start" x="44.5" y="-70.5" font-family="Helvetica,sans-Serif" font-size="10.00">+ props</text>
<polyline fill="none" stroke="black" points="36.5,-63.5 149.5,-63.5 "/>
<text text-anchor="start" x="44.5" y="-51.5" font-family="Helvetica,sans-Serif" font-size="10.00">+ __init__()</text>
<text text-anchor="start" x="44.5" y="-40.5" font-family="Helvetica,sans-Serif" font-size="10.00">+ corners()</text>
<text text-anchor="start" x="44.5" y="-29.5" font-family="Helvetica,sans-Serif" font-size="10.00">+ corners()</text>
<text text-anchor="start" x="44.5" y="-18.5" font-family="Helvetica,sans-Serif" font-size="10.00">+ coords()</text>
<text text-anchor="start" x="44.5" y="-7.5" font-family="Helvetica,sans-Serif" font-size="10.00">+ coords()</text>
</a>
</g>
</g>
<!-- Node2 -->
<g id="node2" class="node">
<title>Node2</title>
<g id="a_node2"><a xlink:href="classpyama_1_1roi_1_1base_1_1Roi.html" target="_top" xlink:title="Base class for ROIs.">
<polygon fill="white" stroke="black" points="0,-149.5 0,-360.5 98,-360.5 98,-149.5 0,-149.5"/>
<text text-anchor="middle" x="49" y="-348.5" font-family="Helvetica,sans-Serif" font-size="10.00">pyama.roi.base.Roi</text>
<polyline fill="none" stroke="black" points="0,-341.5 98,-341.5 "/>
<text text-anchor="start" x="8" y="-329.5" font-family="Helvetica,sans-Serif" font-size="10.00">+ lock</text>
<text text-anchor="start" x="8" y="-318.5" font-family="Helvetica,sans-Serif" font-size="10.00">+ Y</text>
<text text-anchor="start" x="8" y="-307.5" font-family="Helvetica,sans-Serif" font-size="10.00">+ X</text>
<text text-anchor="start" x="8" y="-296.5" font-family="Helvetica,sans-Serif" font-size="10.00">+ Roi_BBox</text>
<text text-anchor="start" x="8" y="-285.5" font-family="Helvetica,sans-Serif" font-size="10.00">+ TYPE</text>
<polyline fill="none" stroke="black" points="0,-278.5 98,-278.5 "/>
<text text-anchor="start" x="8" y="-266.5" font-family="Helvetica,sans-Serif" font-size="10.00">+ __init__()</text>
<text text-anchor="start" x="8" y="-255.5" font-family="Helvetica,sans-Serif" font-size="10.00">+ type()</text>
<text text-anchor="start" x="8" y="-244.5" font-family="Helvetica,sans-Serif" font-size="10.00">+ serialize()</text>
<text text-anchor="start" x="8" y="-233.5" font-family="Helvetica,sans-Serif" font-size="10.00">+ deserialize()</text>
<text text-anchor="start" x="8" y="-222.5" font-family="Helvetica,sans-Serif" font-size="10.00">+ uid()</text>
<text text-anchor="start" x="8" y="-211.5" font-family="Helvetica,sans-Serif" font-size="10.00">+ category()</text>
<text text-anchor="start" x="8" y="-200.5" font-family="Helvetica,sans-Serif" font-size="10.00">+ category()</text>
<text text-anchor="start" x="8" y="-189.5" font-family="Helvetica,sans-Serif" font-size="10.00">+ visible()</text>
<text text-anchor="start" x="8" y="-178.5" font-family="Helvetica,sans-Serif" font-size="10.00">+ visible()</text>
<text text-anchor="start" x="8" y="-167.5" font-family="Helvetica,sans-Serif" font-size="10.00">+ name()</text>
<text text-anchor="start" x="8" y="-156.5" font-family="Helvetica,sans-Serif" font-size="10.00">and 26 more...</text>
</a>
</g>
</g>
<!-- Node2&#45;&gt;Node1 -->
<g id="edge1" class="edge">
<title>Node2&#45;&gt;Node1</title>
<path fill="none" stroke="midnightblue" d="M73.98,-139.33C76.85,-126.16 79.65,-113.31 82.18,-101.69"/>
<polygon fill="none" stroke="midnightblue" points="70.48,-138.93 71.77,-149.45 77.32,-140.42 70.48,-138.93"/>
</g>
<!-- Node3 -->
<g id="node3" class="node">
<title>Node3</title>
<g id="a_node3"><a xlink:title=" ">
<polygon fill="white" stroke="#bfbfbf" points="20.5,-398.5 20.5,-455.5 77.5,-455.5 77.5,-398.5 20.5,-398.5"/>
<text text-anchor="middle" x="49" y="-443.5" font-family="Helvetica,sans-Serif" font-size="10.00">abc::ABC</text>
<polyline fill="none" stroke="#bfbfbf" points="20.5,-436.5 77.5,-436.5 "/>
<text text-anchor="middle" x="49" y="-424.5" font-family="Helvetica,sans-Serif" font-size="10.00"> </text>
<polyline fill="none" stroke="#bfbfbf" points="20.5,-417.5 77.5,-417.5 "/>
<text text-anchor="middle" x="49" y="-405.5" font-family="Helvetica,sans-Serif" font-size="10.00"> </text>
</a>
</g>
</g>
<!-- Node3&#45;&gt;Node2 -->
<g id="edge2" class="edge">
<title>Node3&#45;&gt;Node2</title>
<path fill="none" stroke="midnightblue" d="M49,-388.19C49,-379.8 49,-370.5 49,-360.84"/>
<polygon fill="none" stroke="midnightblue" points="45.5,-388.31 49,-398.31 52.5,-388.31 45.5,-388.31"/>
</g>
<!-- Node4 -->
<g id="node4" class="node">
<title>Node4</title>
<g id="a_node4"><a xlink:title=" ">
<polygon fill="white" stroke="#bfbfbf" points="116.5,-226.5 116.5,-283.5 157.5,-283.5 157.5,-226.5 116.5,-226.5"/>
<text text-anchor="middle" x="137" y="-271.5" font-family="Helvetica,sans-Serif" font-size="10.00">string</text>
<polyline fill="none" stroke="#bfbfbf" points="116.5,-264.5 157.5,-264.5 "/>
<text text-anchor="middle" x="137" y="-252.5" font-family="Helvetica,sans-Serif" font-size="10.00"> </text>
<polyline fill="none" stroke="#bfbfbf" points="116.5,-245.5 157.5,-245.5 "/>
<text text-anchor="middle" x="137" y="-233.5" font-family="Helvetica,sans-Serif" font-size="10.00"> </text>
</a>
</g>
</g>
<!-- Node4&#45;&gt;Node1 -->
<g id="edge3" class="edge">
<title>Node4&#45;&gt;Node1</title>
<path fill="none" stroke="#404040" d="M130.97,-226.34C124.69,-197.48 114.63,-151.28 106.44,-113.7"/>
<polygon fill="none" stroke="#404040" points="106.41,-113.55 101.22,-108.54 103.85,-101.83 109.04,-106.84 106.41,-113.55"/>
<text text-anchor="middle" x="126" y="-123" font-family="Helvetica,sans-Serif" font-size="10.00"> +TYPE</text>
</g>
</g>
</svg>
