<?xml version="1.0" encoding="UTF-8" standalone="no"?>
<!DOCTYPE svg PUBLIC "-//W3C//DTD SVG 1.1//EN"
 "http://www.w3.org/Graphics/SVG/1.1/DTD/svg11.dtd">
<!-- Generated by graphviz version 2.47.1 (20210421.1823)
 -->
<!-- Title: pyama.roi_new.roi.BaseRoi Pages: 1 -->
<svg width="274pt" height="325pt"
 viewBox="0.00 0.00 273.50 325.00" xmlns="http://www.w3.org/2000/svg" xmlns:xlink="http://www.w3.org/1999/xlink">
<g id="graph0" class="graph" transform="scale(1 1) rotate(0) translate(4 321)">
<title>pyama.roi_new.roi.BaseRoi</title>
<polygon fill="white" stroke="transparent" points="-4,4 -4,-321 269.5,-321 269.5,4 -4,4"/>
<!-- Node1 -->
<g id="node1" class="node">
<title>Node1</title>
<g id="a_node1"><a xlink:title="Base class for representing a region&#45;of&#45;interest (ROI).">
<polygon fill="#bfbfbf" stroke="black" points="59.5,-149.5 59.5,-316.5 192.5,-316.5 192.5,-149.5 59.5,-149.5"/>
<text text-anchor="middle" x="126" y="-304.5" font-family="Helvetica,sans-Serif" font-size="10.00">pyama.roi_new.roi.BaseRoi</text>
<polyline fill="none" stroke="black" points="59.5,-297.5 192.5,-297.5 "/>
<text text-anchor="start" x="67.5" y="-285.5" font-family="Helvetica,sans-Serif" font-size="10.00">+ group</text>
<polyline fill="none" stroke="black" points="59.5,-278.5 192.5,-278.5 "/>
<text text-anchor="start" x="67.5" y="-266.5" font-family="Helvetica,sans-Serif" font-size="10.00">+ __init__()</text>
<text text-anchor="start" x="67.5" y="-255.5" font-family="Helvetica,sans-Serif" font-size="10.00">+ lock()</text>
<text text-anchor="start" x="67.5" y="-244.5" font-family="Helvetica,sans-Serif" font-size="10.00">+ id()</text>
<text text-anchor="start" x="67.5" y="-233.5" font-family="Helvetica,sans-Serif" font-size="10.00">+ name()</text>
<text text-anchor="start" x="67.5" y="-222.5" font-family="Helvetica,sans-Serif" font-size="10.00">+ name()</text>
<text text-anchor="start" x="67.5" y="-211.5" font-family="Helvetica,sans-Serif" font-size="10.00">+ group()</text>
<text text-anchor="start" x="67.5" y="-200.5" font-family="Helvetica,sans-Serif" font-size="10.00">+ group()</text>
<text text-anchor="start" x="67.5" y="-189.5" font-family="Helvetica,sans-Serif" font-size="10.00">+ color()</text>
<text text-anchor="start" x="67.5" y="-178.5" font-family="Helvetica,sans-Serif" font-size="10.00">+ color()</text>
<text text-anchor="start" x="67.5" y="-167.5" font-family="Helvetica,sans-Serif" font-size="10.00">+ visible()</text>
<text text-anchor="start" x="67.5" y="-156.5" font-family="Helvetica,sans-Serif" font-size="10.00">+ visible()</text>
</a>
</g>
</g>
<!-- Node2 -->
<g id="node2" class="node">
<title>Node2</title>
<g id="a_node2"><a xlink:href="classpyama_1_1roi__new_1_1roi_1_1Roi.html" target="_top" xlink:title="Representation of a region&#45;of&#45;interest (ROI).">
<polygon fill="white" stroke="black" points="0,-11.5 0,-101.5 110,-101.5 110,-11.5 0,-11.5"/>
<text text-anchor="middle" x="55" y="-89.5" font-family="Helvetica,sans-Serif" font-size="10.00">pyama.roi_new.roi.Roi</text>
<polyline fill="none" stroke="black" points="0,-82.5 110,-82.5 "/>
<text text-anchor="middle" x="55" y="-70.5" font-family="Helvetica,sans-Serif" font-size="10.00"> </text>
<polyline fill="none" stroke="black" points="0,-63.5 110,-63.5 "/>
<text text-anchor="start" x="8" y="-51.5" font-family="Helvetica,sans-Serif" font-size="10.00">+ __init__()</text>
<text text-anchor="start" x="8" y="-40.5" font-family="Helvetica,sans-Serif" font-size="10.00">+ params()</text>
<text text-anchor="start" x="8" y="-29.5" font-family="Helvetica,sans-Serif" font-size="10.00">+ par_ind()</text>
<text text-anchor="start" x="8" y="-18.5" font-family="Helvetica,sans-Serif" font-size="10.00">+ props()</text>
</a>
</g>
</g>
<!-- Node1&#45;&gt;Node2 -->
<g id="edge1" class="edge">
<title>Node1&#45;&gt;Node2</title>
<path fill="none" stroke="midnightblue" d="M88.46,-139.74C83.1,-126.56 77.8,-113.53 73.05,-101.86"/>
<polygon fill="none" stroke="midnightblue" points="85.36,-141.41 92.37,-149.35 91.84,-138.77 85.36,-141.41"/>
</g>
<!-- Node3 -->
<g id="node3" class="node">
<title>Node3</title>
<g id="a_node3"><a xlink:href="classpyama_1_1roi__new_1_1roi_1_1RoiGroup.html" target="_top" xlink:title="Class for grouping related Roi instances.">
<polygon fill="white" stroke="black" points="128.5,-0.5 128.5,-112.5 265.5,-112.5 265.5,-0.5 128.5,-0.5"/>
<text text-anchor="middle" x="197" y="-100.5" font-family="Helvetica,sans-Serif" font-size="10.00">pyama.roi_new.roi.RoiGroup</text>
<polyline fill="none" stroke="black" points="128.5,-93.5 265.5,-93.5 "/>
<text text-anchor="start" x="136.5" y="-81.5" font-family="Helvetica,sans-Serif" font-size="10.00">+ parent</text>
<polyline fill="none" stroke="black" points="128.5,-74.5 265.5,-74.5 "/>
<text text-anchor="start" x="136.5" y="-62.5" font-family="Helvetica,sans-Serif" font-size="10.00">+ __init__()</text>
<text text-anchor="start" x="136.5" y="-51.5" font-family="Helvetica,sans-Serif" font-size="10.00">+ parent()</text>
<text text-anchor="start" x="136.5" y="-40.5" font-family="Helvetica,sans-Serif" font-size="10.00">+ parent()</text>
<text text-anchor="start" x="136.5" y="-29.5" font-family="Helvetica,sans-Serif" font-size="10.00">+ subgroups()</text>
<text text-anchor="start" x="136.5" y="-18.5" font-family="Helvetica,sans-Serif" font-size="10.00">+ add_subgroups()</text>
<text text-anchor="start" x="136.5" y="-7.5" font-family="Helvetica,sans-Serif" font-size="10.00">+ remove_subgroups()</text>
</a>
</g>
</g>
<!-- Node1&#45;&gt;Node3 -->
<g id="edge2" class="edge">
<title>Node1&#45;&gt;Node3</title>
<path fill="none" stroke="midnightblue" d="M163.51,-139.8C167.24,-130.65 170.93,-121.57 174.43,-112.97"/>
<polygon fill="none" stroke="midnightblue" points="160.16,-138.77 159.63,-149.35 166.64,-141.41 160.16,-138.77"/>
</g>
</g>
</svg>
