<?xml version="1.0" encoding="UTF-8" standalone="no"?>
<!DOCTYPE svg PUBLIC "-//W3C//DTD SVG 1.1//EN"
 "http://www.w3.org/Graphics/SVG/1.1/DTD/svg11.dtd">
<!-- Generated by graphviz version 2.47.1 (20210421.1823)
 -->
<!-- Title: pyama.gui.scrollutil.ScrolledFrame Pages: 1 -->
<svg width="144pt" height="364pt"
 viewBox="0.00 0.00 144.00 364.00" xmlns="http://www.w3.org/2000/svg" xmlns:xlink="http://www.w3.org/1999/xlink">
<g id="graph0" class="graph" transform="scale(1 1) rotate(0) translate(4 360)">
<title>pyama.gui.scrollutil.ScrolledFrame</title>
<polygon fill="white" stroke="transparent" points="-4,4 -4,-360 140,-360 140,4 -4,4"/>
<!-- Node1 -->
<g id="node1" class="node">
<title>Node1</title>
<g id="a_node1"><a xlink:title="Frame with automatic scrollbars.">
<polygon fill="#bfbfbf" stroke="black" points="0,-0.5 0,-101.5 136,-101.5 136,-0.5 0,-0.5"/>
<text text-anchor="start" x="8" y="-89.5" font-family="Helvetica,sans-Serif" font-size="10.00">pyama.gui.scrollutil.Scrolled</text>
<text text-anchor="middle" x="68" y="-78.5" font-family="Helvetica,sans-Serif" font-size="10.00">Frame</text>
<polyline fill="none" stroke="black" points="0,-71.5 136,-71.5 "/>
<text text-anchor="start" x="8" y="-59.5" font-family="Helvetica,sans-Serif" font-size="10.00">+ canvas</text>
<text text-anchor="start" x="8" y="-48.5" font-family="Helvetica,sans-Serif" font-size="10.00">+ viewport</text>
<text text-anchor="start" x="8" y="-37.5" font-family="Helvetica,sans-Serif" font-size="10.00">+ vp_win</text>
<polyline fill="none" stroke="black" points="0,-30.5 136,-30.5 "/>
<text text-anchor="start" x="8" y="-18.5" font-family="Helvetica,sans-Serif" font-size="10.00">+ __init__()</text>
<text text-anchor="start" x="8" y="-7.5" font-family="Helvetica,sans-Serif" font-size="10.00">+ set_widget()</text>
</a>
</g>
</g>
<!-- Node2 -->
<g id="node2" class="node">
<title>Node2</title>
<g id="a_node2"><a xlink:href="classpyama_1_1gui_1_1scrollutil_1_1ScrolledWidget.html" target="_top" xlink:title="Wrapper class for adding scrollbars.">
<polygon fill="white" stroke="black" points="0,-138.5 0,-261.5 136,-261.5 136,-138.5 0,-138.5"/>
<text text-anchor="start" x="8" y="-249.5" font-family="Helvetica,sans-Serif" font-size="10.00">pyama.gui.scrollutil.Scrolled</text>
<text text-anchor="middle" x="68" y="-238.5" font-family="Helvetica,sans-Serif" font-size="10.00">Widget</text>
<polyline fill="none" stroke="black" points="0,-231.5 136,-231.5 "/>
<text text-anchor="start" x="8" y="-219.5" font-family="Helvetica,sans-Serif" font-size="10.00">+ horizontal_dynamic</text>
<text text-anchor="start" x="8" y="-208.5" font-family="Helvetica,sans-Serif" font-size="10.00">+ vertical_dynamic</text>
<text text-anchor="start" x="8" y="-197.5" font-family="Helvetica,sans-Serif" font-size="10.00">+ widget</text>
<text text-anchor="start" x="8" y="-186.5" font-family="Helvetica,sans-Serif" font-size="10.00">+ horizontal_scrollbar</text>
<text text-anchor="start" x="8" y="-175.5" font-family="Helvetica,sans-Serif" font-size="10.00">+ vertical_scrollbar</text>
<polyline fill="none" stroke="black" points="0,-168.5 136,-168.5 "/>
<text text-anchor="start" x="8" y="-156.5" font-family="Helvetica,sans-Serif" font-size="10.00">+ __init__()</text>
<text text-anchor="start" x="8" y="-145.5" font-family="Helvetica,sans-Serif" font-size="10.00">+ set_widget()</text>
</a>
</g>
</g>
<!-- Node2&#45;&gt;Node1 -->
<g id="edge1" class="edge">
<title>Node2&#45;&gt;Node1</title>
<path fill="none" stroke="midnightblue" d="M68,-128.29C68,-119.32 68,-110.3 68,-101.76"/>
<polygon fill="none" stroke="midnightblue" points="64.5,-128.36 68,-138.36 71.5,-128.36 64.5,-128.36"/>
</g>
<!-- Node3 -->
<g id="node3" class="node">
<title>Node3</title>
<g id="a_node3"><a xlink:title=" ">
<polygon fill="white" stroke="#bfbfbf" points="39.5,-298.5 39.5,-355.5 96.5,-355.5 96.5,-298.5 39.5,-298.5"/>
<text text-anchor="middle" x="68" y="-343.5" font-family="Helvetica,sans-Serif" font-size="10.00">tk::Frame</text>
<polyline fill="none" stroke="#bfbfbf" points="39.5,-336.5 96.5,-336.5 "/>
<text text-anchor="middle" x="68" y="-324.5" font-family="Helvetica,sans-Serif" font-size="10.00"> </text>
<polyline fill="none" stroke="#bfbfbf" points="39.5,-317.5 96.5,-317.5 "/>
<text text-anchor="middle" x="68" y="-305.5" font-family="Helvetica,sans-Serif" font-size="10.00"> </text>
</a>
</g>
</g>
<!-- Node3&#45;&gt;Node2 -->
<g id="edge2" class="edge">
<title>Node3&#45;&gt;Node2</title>
<path fill="none" stroke="midnightblue" d="M68,-288.1C68,-279.74 68,-270.68 68,-261.67"/>
<polygon fill="none" stroke="midnightblue" points="64.5,-288.26 68,-298.26 71.5,-288.26 64.5,-288.26"/>
</g>
</g>
</svg>
