<?xml version="1.0" encoding="UTF-8" standalone="no"?>
<!DOCTYPE svg PUBLIC "-//W3C//DTD SVG 1.1//EN"
 "http://www.w3.org/Graphics/SVG/1.1/DTD/svg11.dtd">
<!-- Generated by graphviz version 2.47.1 (20210421.1823)
 -->
<!-- Title: Graphical Class Hierarchy Pages: 1 -->
<svg width="314pt" height="66pt"
 viewBox="0.00 0.00 314.00 66.00" xmlns="http://www.w3.org/2000/svg" xmlns:xlink="http://www.w3.org/1999/xlink">
<g id="graph0" class="graph" transform="scale(1 1) rotate(0) translate(4 62)">
<title>Graphical Class Hierarchy</title>
<polygon fill="white" stroke="transparent" points="-4,4 -4,-62 310,-62 310,4 -4,4"/>
<!-- Node0 -->
<g id="node1" class="node">
<title>Node0</title>
<g id="a_node1"><a xlink:href="classpyama_1_1roi__new_1_1roi_1_1BaseRoi.html" target="_top" xlink:title="Base class for representing a region&#45;of&#45;interest (ROI).">
<polygon fill="white" stroke="black" points="0,-19.5 0,-38.5 133,-38.5 133,-19.5 0,-19.5"/>
<text text-anchor="middle" x="66.5" y="-26.5" font-family="Helvetica,sans-Serif" font-size="10.00">pyama.roi_new.roi.BaseRoi</text>
</a>
</g>
</g>
<!-- Node1 -->
<g id="node2" class="node">
<title>Node1</title>
<g id="a_node2"><a xlink:href="classpyama_1_1roi__new_1_1roi_1_1Roi.html" target="_top" xlink:title="Representation of a region&#45;of&#45;interest (ROI).">
<polygon fill="white" stroke="black" points="182.5,-38.5 182.5,-57.5 292.5,-57.5 292.5,-38.5 182.5,-38.5"/>
<text text-anchor="middle" x="237.5" y="-45.5" font-family="Helvetica,sans-Serif" font-size="10.00">pyama.roi_new.roi.Roi</text>
</a>
</g>
</g>
<!-- Node0&#45;&gt;Node1 -->
<g id="edge1" class="edge">
<title>Node0&#45;&gt;Node1</title>
<path fill="none" stroke="midnightblue" d="M143.31,-37.52C156.46,-39 169.9,-40.51 182.32,-41.91"/>
<polygon fill="midnightblue" stroke="midnightblue" points="143.65,-34.04 133.32,-36.4 142.87,-41 143.65,-34.04"/>
</g>
<!-- Node2 -->
<g id="node3" class="node">
<title>Node2</title>
<g id="a_node3"><a xlink:href="classpyama_1_1roi__new_1_1roi_1_1RoiGroup.html" target="_top" xlink:title="Class for grouping related Roi instances.">
<polygon fill="white" stroke="black" points="169,-0.5 169,-19.5 306,-19.5 306,-0.5 169,-0.5"/>
<text text-anchor="middle" x="237.5" y="-7.5" font-family="Helvetica,sans-Serif" font-size="10.00">pyama.roi_new.roi.RoiGroup</text>
</a>
</g>
</g>
<!-- Node0&#45;&gt;Node2 -->
<g id="edge2" class="edge">
<title>Node0&#45;&gt;Node2</title>
<path fill="none" stroke="midnightblue" d="M143.27,-20.48C151.82,-19.52 160.48,-18.55 168.91,-17.6"/>
<polygon fill="midnightblue" stroke="midnightblue" points="142.87,-17 133.32,-21.6 143.65,-23.96 142.87,-17"/>
</g>
</g>
</svg>
